<svg xmlns="http://www.w3.org/2000/svg" width="24" height="24" viewBox="0 0 24 24" fill="currentColor"><path d="M21.97 12.83 19.21 5H21V4h-8.5V2h-1v2H3v1h1.8l-2.77 7.83A.5.5 0 0 0 2 13v.5C2 15.7 3.3 17 5.5 17S9 15.7 9 13.5V13a.5.5 0 0 0-.03-.17L6.21 5h5.29v16H9v1h6v-1h-2.5V5h5.3l-2.77 7.83A.5.5 0 0 0 15 13v.5c0 2.2 1.3 3.5 3.5 3.5s3.5-1.3 3.5-3.5V13a.5.5 0 0 0-.03-.17ZM5.5 16c-1.04 0-2.27-.36-2.47-2h4.94c-.2 1.64-1.43 2-2.47 2Zm-2.47-3L5.5 6l2.47 7H3.03ZM18.5 6l2.47 7h-4.94l2.47-7Zm0 10c-1.04 0-2.27-.36-2.47-2h4.94c-.2 1.64-1.43 2-2.47 2Z"></path><path d="M21.97 12.83 19.21 5H21V4h-8.5V2h-1v2H3v1h1.8l-2.77 7.83A.5.5 0 0 0 2 13v.5C2 15.7 3.3 17 5.5 17S9 15.7 9 13.5V13a.5.5 0 0 0-.03-.17L6.21 5h5.29v16H9v1h6v-1h-2.5V5h5.3l-2.77 7.83A.5.5 0 0 0 15 13v.5c0 2.2 1.3 3.5 3.5 3.5s3.5-1.3 3.5-3.5V13a.5.5 0 0 0-.03-.17ZM5.5 16c-1.04 0-2.27-.36-2.47-2h4.94c-.2 1.64-1.43 2-2.47 2Zm-2.47-3L5.5 6l2.47 7H3.03ZM18.5 6l2.47 7h-4.94l2.47-7Zm0 10c-1.04 0-2.27-.36-2.47-2h4.94c-.2 1.64-1.43 2-2.47 2Z"></path></svg>