<svg xmlns="http://www.w3.org/2000/svg" width="24" height="24" viewBox="0 0 24 24" fill="currentColor"><path d="M22 9c0-.63-.23-1.14-.6-1.5.38-.34.6-.86.6-1.5 0-1.2-.8-2-2-2 0-1.21-.79-2-2-2-.63 0-1.14.23-1.5.6-.34-.38-.86-.6-1.5-.6-.63 0-1.14.23-1.5.6-.34-.38-.86-.6-1.5-.6-.63 0-1.14.23-1.5.6-.34-.38-.86-.6-1.5-.6-.63 0-1.14.23-1.5.6C7.17 2.23 6.65 2 6 2c-1.2 0-2 .8-2 2-1.21 0-2 .79-2 2 0 .63.23 1.14.6 1.5-.38.34-.6.86-.6 1.5 0 .63.23 1.14.6 1.5-.38.34-.6.86-.6 1.5 0 .63.23 1.14.6 1.5-.38.34-.6.86-.6 1.5 0 .63.23 1.14.6 1.5-.38.34-.6.86-.6 1.5 0 1.2.8 2 2 2 0 1.21.79 2 2 2 .63 0 1.14-.23 1.5-.6.34.38.86.6 1.5.6.63 0 1.14-.23 1.5-.6.34.38.86.6 1.5.6.63 0 1.14-.23 1.5-.6.34.38.86.6 1.5.6.63 0 1.14-.23 1.5-.6.34.38.86.6 1.5.6 1.2 0 2-.8 2-2 1.21 0 2-.79 2-2 0-.63-.23-1.14-.6-1.5.38-.34.6-.86.6-1.5 0-.63-.23-1.14-.6-1.5.38-.34.6-.86.6-1.5 0-.63-.23-1.14-.6-1.5.38-.34.6-.86.6-1.5Zm-2 2c.3 0 1 .1 1 1 0 .83-.54 1-1 1v1c.3 0 1 .1 1 1 0 .83-.54 1-1 1v1c.3 0 1 .1 1 1 0 .83-.54 1-1 1h-1v1c0 .3-.1 1-1 1-.83 0-1-.54-1-1h-1c0 .3-.1 1-1 1-.83 0-1-.54-1-1h-1c0 .3-.1 1-1 1-.83 0-1-.54-1-1h-1c0 .3-.1 1-1 1-.83 0-1-.54-1-1H7c0 .3-.1 1-1 1-.83 0-1-.54-1-1v-1H4c-.3 0-1-.1-1-1 0-.83.54-1 1-1v-1c-.3 0-1-.1-1-1 0-.83.54-1 1-1v-1c-.3 0-1-.1-1-1 0-.83.54-1 1-1v-1c-.3 0-1-.1-1-1 0-.83.54-1 1-1V7c-.3 0-1-.1-1-1 0-.83.54-1 1-1h1V4c0-.3.1-1 1-1 .83 0 1 .54 1 1h1c0-.3.1-1 1-1 .83 0 1 .54 1 1h1c0-.3.1-1 1-1 .83 0 1 .54 1 1h1c0-.3.1-1 1-1 .83 0 1 .54 1 1h1c0-.3.1-1 1-1 .83 0 1 .54 1 1v1h1c.3 0 1 .1 1 1 0 .83-.54 1-1 1v1c.3 0 1 .1 1 1 0 .83-.54 1-1 1v1Z"></path><path d="M11 7h-1v1h1V7ZM8 10H7v1h1v-1ZM14 10h-1v1h1v-1ZM17 7h-1v1h1V7ZM11 13h-1v1h1v-1ZM17 13h-1v1h1v-1ZM8 16H7v1h1v-1ZM14 16h-1v1h1v-1Z"></path><path d="M22 9c0-.63-.23-1.14-.6-1.5.38-.34.6-.86.6-1.5 0-1.2-.8-2-2-2 0-1.21-.79-2-2-2-.63 0-1.14.23-1.5.6-.34-.38-.86-.6-1.5-.6-.63 0-1.14.23-1.5.6-.34-.38-.86-.6-1.5-.6-.63 0-1.14.23-1.5.6-.34-.38-.86-.6-1.5-.6-.63 0-1.14.23-1.5.6C7.17 2.23 6.65 2 6 2c-1.2 0-2 .8-2 2-1.21 0-2 .79-2 2 0 .63.23 1.14.6 1.5-.38.34-.6.86-.6 1.5 0 .63.23 1.14.6 1.5-.38.34-.6.86-.6 1.5 0 .63.23 1.14.6 1.5-.38.34-.6.86-.6 1.5 0 .63.23 1.14.6 1.5-.38.34-.6.86-.6 1.5 0 1.2.8 2 2 2 0 1.21.79 2 2 2 .63 0 1.14-.23 1.5-.6.34.38.86.6 1.5.6.63 0 1.14-.23 1.5-.6.34.38.86.6 1.5.6.63 0 1.14-.23 1.5-.6.34.38.86.6 1.5.6.63 0 1.14-.23 1.5-.6.34.38.86.6 1.5.6 1.2 0 2-.8 2-2 1.21 0 2-.79 2-2 0-.63-.23-1.14-.6-1.5.38-.34.6-.86.6-1.5 0-.63-.23-1.14-.6-1.5.38-.34.6-.86.6-1.5 0-.63-.23-1.14-.6-1.5.38-.34.6-.86.6-1.5Zm-2 2c.3 0 1 .1 1 1 0 .83-.54 1-1 1v1c.3 0 1 .1 1 1 0 .83-.54 1-1 1v1c.3 0 1 .1 1 1 0 .83-.54 1-1 1h-1v1c0 .3-.1 1-1 1-.83 0-1-.54-1-1h-1c0 .3-.1 1-1 1-.83 0-1-.54-1-1h-1c0 .3-.1 1-1 1-.83 0-1-.54-1-1h-1c0 .3-.1 1-1 1-.83 0-1-.54-1-1H7c0 .3-.1 1-1 1-.83 0-1-.54-1-1v-1H4c-.3 0-1-.1-1-1 0-.83.54-1 1-1v-1c-.3 0-1-.1-1-1 0-.83.54-1 1-1v-1c-.3 0-1-.1-1-1 0-.83.54-1 1-1v-1c-.3 0-1-.1-1-1 0-.83.54-1 1-1V7c-.3 0-1-.1-1-1 0-.83.54-1 1-1h1V4c0-.3.1-1 1-1 .83 0 1 .54 1 1h1c0-.3.1-1 1-1 .83 0 1 .54 1 1h1c0-.3.1-1 1-1 .83 0 1 .54 1 1h1c0-.3.1-1 1-1 .83 0 1 .54 1 1h1c0-.3.1-1 1-1 .83 0 1 .54 1 1v1h1c.3 0 1 .1 1 1 0 .83-.54 1-1 1v1c.3 0 1 .1 1 1 0 .83-.54 1-1 1v1Z"></path><path d="M11 7h-1v1h1V7ZM8 10H7v1h1v-1ZM14 10h-1v1h1v-1ZM17 7h-1v1h1V7ZM11 13h-1v1h1v-1ZM17 13h-1v1h1v-1ZM8 16H7v1h1v-1ZM14 16h-1v1h1v-1Z"></path></svg>