<svg xmlns="http://www.w3.org/2000/svg" width="24" height="24" viewBox="0 0 24 24" fill="currentColor"><g clip-path="url(#a)"><path d="M17.5 15c-2.63 0-4.47.76-5.5 2.26v-2.3c3.22-.18 5-2.09 5-5.46V9h-.5c-2.05 0-3.58.64-4.5 1.8V8.96c2.5-.2 4-1.82 4-4.46V4h-.5c-.66 0-1.33.1-1.95.32A4.07 4.07 0 0 0 11.8 1.1l-.3-.23-.3.23a4.06 4.06 0 0 0-1.75 3.24A5.78 5.78 0 0 0 7.5 4H7v.5c0 1.76.66 3.08 1.84 3.82.59.37 1.32.58 2.16.64v1.84C10.08 9.64 8.55 9 6.5 9H6v.5c0 3.37 1.78 5.28 5 5.46v2.3C9.97 15.76 8.13 15 5.5 15H5v.5c0 4.14 2.03 6.3 6 6.47V24h1v-2.03c3.97-.18 6-2.33 6-6.47V15h-.5ZM6.01 16.01C9.41 16.15 11 17.74 11 21c-3.29-.14-4.85-1.7-4.99-4.98Zm1-6c1.93.12 3.98.95 3.99 3.98-2.52-.15-3.83-1.46-3.98-3.97Zm8.98 0c-.16 2.52-1.47 3.83-3.99 3.98 0-3.03 2.06-3.86 3.99-3.97Zm-1.01-4.99C14.77 7.27 13.2 7.86 12 7.98c0-.58.12-1.04.3-1.42.57-1.13 1.8-1.46 2.68-1.54ZM11 7.98c-1.21-.12-2.77-.7-2.98-2.95C9.54 5.18 11 6 11 7.98Zm.5-2.03c-.01 0-.02 0-.02-.02-.26-.43-.6-.78-1-1.06a2.94 2.94 0 0 1 1.02-2.72 2.93 2.93 0 0 1 1.02 2.7c-.4.28-.77.64-1.03 1.1ZM12 21c0-3.25 1.6-4.84 4.99-4.98-.14 3.28-1.7 4.84-4.99 4.98Z"></path></g><defs><clipPath id="a"><path d="M0 0h24v24H0z"></path></clipPath></defs><g clip-path="url(#a)"><path d="M17.5 15c-2.63 0-4.47.76-5.5 2.26v-2.3c3.22-.18 5-2.09 5-5.46V9h-.5c-2.05 0-3.58.64-4.5 1.8V8.96c2.5-.2 4-1.82 4-4.46V4h-.5c-.66 0-1.33.1-1.95.32A4.07 4.07 0 0 0 11.8 1.1l-.3-.23-.3.23a4.06 4.06 0 0 0-1.75 3.24A5.78 5.78 0 0 0 7.5 4H7v.5c0 1.76.66 3.08 1.84 3.82.59.37 1.32.58 2.16.64v1.84C10.08 9.64 8.55 9 6.5 9H6v.5c0 3.37 1.78 5.28 5 5.46v2.3C9.97 15.76 8.13 15 5.5 15H5v.5c0 4.14 2.03 6.3 6 6.47V24h1v-2.03c3.97-.18 6-2.33 6-6.47V15h-.5ZM6.01 16.01C9.41 16.15 11 17.74 11 21c-3.29-.14-4.85-1.7-4.99-4.98Zm1-6c1.93.12 3.98.95 3.99 3.98-2.52-.15-3.83-1.46-3.98-3.97Zm8.98 0c-.16 2.52-1.47 3.83-3.99 3.98 0-3.03 2.06-3.86 3.99-3.97Zm-1.01-4.99C14.77 7.27 13.2 7.86 12 7.98c0-.58.12-1.04.3-1.42.57-1.13 1.8-1.46 2.68-1.54ZM11 7.98c-1.21-.12-2.77-.7-2.98-2.95C9.54 5.18 11 6 11 7.98Zm.5-2.03c-.01 0-.02 0-.02-.02-.26-.43-.6-.78-1-1.06a2.94 2.94 0 0 1 1.02-2.72 2.93 2.93 0 0 1 1.02 2.7c-.4.28-.77.64-1.03 1.1ZM12 21c0-3.25 1.6-4.84 4.99-4.98-.14 3.28-1.7 4.84-4.99 4.98Z"></path></g><defs><clipPath id="a"><path d="M0 0h24v24H0z"></path></clipPath></defs></svg>