<svg xmlns="http://www.w3.org/2000/svg" width="24" height="24" viewBox="0 0 24 24" fill="currentColor"><path d="M23 9c0-4.9-3.1-8-8-8S7 4.1 7 9v.1c-.2 0-.5 0-.7.1-.2.1-.3.2-.4.4v1.7L4.4 10c-.1-.1-.3-.1-.5-.1-1.8.8-2.8 2.2-2.9 3.9v.4c.2 5.4 3.2 8.8 8 8.8 3.9 0 6.7-2.3 7.6-6.1 4-.7 6.4-3.6 6.4-7.9ZM9 22c-3.2 0-5.6-1.8-6.5-4.9C3.8 18.3 6.1 19 9 19s5.2-.7 6.5-1.9C14.6 20.2 12.2 22 9 22ZM4 11l1.2 1c-1.4.5-1.7 1.3-1.7 2 0 1.5 2.1 2.5 5.5 2.5s5.5-1 5.5-2.5-2-2.5-5.3-2.5l-1.6-1.4C8 10 8.5 10 9 10c4.3 0 7 1.6 7 4s-2.7 4-7 4-7-1.6-7-4c0-1.3.7-2.3 2-3Zm2.1 1.8L8 14.5h1.5v-2c2.4.1 3.8.7 4 1.3v.2c0 .7-1.5 1.5-4.5 1.5s-4.5-.8-4.5-1.5v-.2c.2-.5 1.1-.8 1.6-1Zm2.4-.6v1.3h-.1l-1.5-1.4v-1.3l1.6 1.4Zm8.4 3.6c.1-.5.1-1 .1-1.6v-.4C16.9 10.9 13.8 9 9 9H8c0-4.4 2.6-7 7-7 4.3 0 7 2.7 7 7 0 3.6-2 6.1-5.1 6.8Z"></path><path d="M16 8.3a.8.8 0 1 0 0-1.6.8.8 0 0 0 0 1.6ZM16.5 5.3a.8.8 0 1 0 0-1.6.8.8 0 0 0 0 1.6ZM19 7.3a.8.8 0 1 0 0-1.6.8.8 0 0 0 0 1.6Z"></path><path d="M23 9c0-4.9-3.1-8-8-8S7 4.1 7 9v.1c-.2 0-.5 0-.7.1-.2.1-.3.2-.4.4v1.7L4.4 10c-.1-.1-.3-.1-.5-.1-1.8.8-2.8 2.2-2.9 3.9v.4c.2 5.4 3.2 8.8 8 8.8 3.9 0 6.7-2.3 7.6-6.1 4-.7 6.4-3.6 6.4-7.9ZM9 22c-3.2 0-5.6-1.8-6.5-4.9C3.8 18.3 6.1 19 9 19s5.2-.7 6.5-1.9C14.6 20.2 12.2 22 9 22ZM4 11l1.2 1c-1.4.5-1.7 1.3-1.7 2 0 1.5 2.1 2.5 5.5 2.5s5.5-1 5.5-2.5-2-2.5-5.3-2.5l-1.6-1.4C8 10 8.5 10 9 10c4.3 0 7 1.6 7 4s-2.7 4-7 4-7-1.6-7-4c0-1.3.7-2.3 2-3Zm2.1 1.8L8 14.5h1.5v-2c2.4.1 3.8.7 4 1.3v.2c0 .7-1.5 1.5-4.5 1.5s-4.5-.8-4.5-1.5v-.2c.2-.5 1.1-.8 1.6-1Zm2.4-.6v1.3h-.1l-1.5-1.4v-1.3l1.6 1.4Zm8.4 3.6c.1-.5.1-1 .1-1.6v-.4C16.9 10.9 13.8 9 9 9H8c0-4.4 2.6-7 7-7 4.3 0 7 2.7 7 7 0 3.6-2 6.1-5.1 6.8Z"></path><path d="M16 8.3a.8.8 0 1 0 0-1.6.8.8 0 0 0 0 1.6ZM16.5 5.3a.8.8 0 1 0 0-1.6.8.8 0 0 0 0 1.6ZM19 7.3a.8.8 0 1 0 0-1.6.8.8 0 0 0 0 1.6Z"></path></svg>