<svg xmlns="http://www.w3.org/2000/svg" width="24" height="24" viewBox="0 0 24 24" fill="currentColor"><path d="M22.59 2.88 21.12 1.4l-2.8 1.13.02.06c-2.96-1.57-6.16-.15-10.75 4.6C1.5 13.29 2 21.23 2.03 21.56l.03.41.4.05c.09.01.6.07 1.44.07 2.61 0 8.3-.59 12.88-5.16 3.55-3.52 5.27-6.44 5.25-8.96 0-.81-.2-1.57-.56-2.29l1.12-2.8Zm-1.71-.3.53.54-.61 1.54c-.2-.25-.42-.5-.68-.74V3.9l-.02-.01-.05-.05c-.25-.23-.5-.44-.75-.63l1.58-.63Zm-1.61 4.73c-.82 1.63-2.64 3.85-5.4 6.6-4.43 4.44-8.7 6.12-10.44 6.66.54-1.73 2.22-6.01 6.65-10.45 3.93-3.92 6.72-5.9 8.32-5.9.4 0 .74.13.99.38l.02.02.08.08c.24.28.6.96-.22 2.61ZM8.3 7.9c4.75-4.92 7.4-5.44 9.3-4.58-1.92.46-4.58 2.45-8.23 6.1a28.8 28.8 0 0 0-6.13 8.77C3.68 15.4 4.9 11.3 8.3 7.9Zm7.77 8.31a17.21 17.21 0 0 1-10.93 4.82 28.28 28.28 0 0 0 9.43-6.4c2.87-2.88 4.7-5.12 5.58-6.87.25-.5.42-.96.52-1.39.22.51.35 1.05.35 1.61.02 2.2-1.65 4.97-4.95 8.23Z"></path><path d="M22.59 2.88 21.12 1.4l-2.8 1.13.02.06c-2.96-1.57-6.16-.15-10.75 4.6C1.5 13.29 2 21.23 2.03 21.56l.03.41.4.05c.09.01.6.07 1.44.07 2.61 0 8.3-.59 12.88-5.16 3.55-3.52 5.27-6.44 5.25-8.96 0-.81-.2-1.57-.56-2.29l1.12-2.8Zm-1.71-.3.53.54-.61 1.54c-.2-.25-.42-.5-.68-.74V3.9l-.02-.01-.05-.05c-.25-.23-.5-.44-.75-.63l1.58-.63Zm-1.61 4.73c-.82 1.63-2.64 3.85-5.4 6.6-4.43 4.44-8.7 6.12-10.44 6.66.54-1.73 2.22-6.01 6.65-10.45 3.93-3.92 6.72-5.9 8.32-5.9.4 0 .74.13.99.38l.02.02.08.08c.24.28.6.96-.22 2.61ZM8.3 7.9c4.75-4.92 7.4-5.44 9.3-4.58-1.92.46-4.58 2.45-8.23 6.1a28.8 28.8 0 0 0-6.13 8.77C3.68 15.4 4.9 11.3 8.3 7.9Zm7.77 8.31a17.21 17.21 0 0 1-10.93 4.82 28.28 28.28 0 0 0 9.43-6.4c2.87-2.88 4.7-5.12 5.58-6.87.25-.5.42-.96.52-1.39.22.51.35 1.05.35 1.61.02 2.2-1.65 4.97-4.95 8.23Z"></path></svg>