<svg xmlns="http://www.w3.org/2000/svg" width="24" height="24" viewBox="0 0 24 24" fill="currentColor"><path d="m17.62 10 .16-1h-1.02l-1.62 10.58a.5.5 0 0 1-.5.42H8.36a.5.5 0 0 1-.5-.42L6.24 9H5.22l1.66 10.73A1.5 1.5 0 0 0 8.36 21h6.28a1.5 1.5 0 0 0 1.48-1.27l.73-4.73h.65c2.48 0 3-1.36 3-2.5 0-1.12-.51-2.44-2.88-2.5Zm-.12 4H17l.47-3h.03c1.76 0 2 .72 2 1.5s-.24 1.5-2 1.5ZM18 8v-.5c0-.75-.3-2-2.25-2-.32 0-.58.04-.81.1-.67-1-1.88-1.6-3.44-1.6s-2.77.6-3.44 1.6c-.23-.06-.5-.1-.81-.1C5.29 5.5 5 6.75 5 7.5V8h13Z"></path><path d="M8.02 14h6.96l.77-5h-8.5l.77 5Z"></path><path d="m17.62 10 .16-1h-1.02l-1.62 10.58a.5.5 0 0 1-.5.42H8.36a.5.5 0 0 1-.5-.42L6.24 9H5.22l1.66 10.73A1.5 1.5 0 0 0 8.36 21h6.28a1.5 1.5 0 0 0 1.48-1.27l.73-4.73h.65c2.48 0 3-1.36 3-2.5 0-1.12-.51-2.44-2.88-2.5Zm-.12 4H17l.47-3h.03c1.76 0 2 .72 2 1.5s-.24 1.5-2 1.5ZM18 8v-.5c0-.75-.3-2-2.25-2-.32 0-.58.04-.81.1-.67-1-1.88-1.6-3.44-1.6s-2.77.6-3.44 1.6c-.23-.06-.5-.1-.81-.1C5.29 5.5 5 6.75 5 7.5V8h13Z"></path><path d="M8.02 14h6.96l.77-5h-8.5l.77 5Z"></path></svg>