<svg xmlns="http://www.w3.org/2000/svg" width="24" height="24" viewBox="0 0 24 24" fill="currentColor">
    <path d="M19.49 4.51C15.63.66 11.16 1.22 6.19 6.2c-4.97 4.97-5.53 9.44-1.68 13.3C6.18 21.16 8 22 9.91 22c.3 0 .6-.02.9-.06 2.2-.3 4.55-1.68 7-4.13s3.84-4.8 4.13-7c.3-2.25-.52-4.37-2.45-6.3ZM6.89 6.9C9.5 4.3 11.89 3 14.09 3c1.56 0 3.04.66 4.44 1.97l-2.27 4.27a4.24 4.24 0 0 1-3.75 2.26h-1a5.24 5.24 0 0 0-4.64 2.8l-2.1 3.98c-2.9-3.31-2.2-7.04 2.14-11.38Zm14.06 3.77c-.27 1.98-1.56 4.14-3.85 6.43-2.29 2.3-4.45 3.58-6.43 3.85-1.85.24-3.55-.39-5.18-1.92l2.26-4.27a4.24 4.24 0 0 1 3.75-2.26h1a5.24 5.24 0 0 0 4.64-2.8l2.1-3.98c1.38 1.57 1.94 3.2 1.7 4.95Z">
    </path>
</svg>