<svg xmlns="http://www.w3.org/2000/svg" width="24" height="24" viewBox="0 0 24 24" fill="currentColor"><path d="M20 13.67c2.46-.87 3.48-2.7 2.79-5.02a3.65 3.65 0 0 0-1.75-2.31c-.89-.45-2-.45-3.29 0-.83.3-1.63.79-2.37 1.35.37-.88.62-1.8.62-2.7 0-2.53-1.46-4-4-4S8 2.47 8 5c0 .9.25 1.82.62 2.7a8.75 8.75 0 0 0-2.37-1.35c-1.3-.45-2.4-.46-3.28 0A3.65 3.65 0 0 0 1.2 8.64c-.7 2.32.33 4.15 2.8 5.02a6.4 6.4 0 0 0 2.12.33l.23-.01a8.95 8.95 0 0 0-2.22 1.97c-.9 1.2-1.27 2.32-1.1 3.36.14.91.71 1.73 1.64 2.38.47.33 1.31.79 2.33.79 1.04 0 2.26-.48 3.46-2.07A9.76 9.76 0 0 0 12 16.88c.3 1.26.77 2.55 1.53 3.54 1.03 1.38 2.24 2.08 3.49 2.08.76 0 1.54-.27 2.3-.8a3.65 3.65 0 0 0 1.64-2.38c.17-1.04-.2-2.17-1.1-3.36a8.97 8.97 0 0 0-2.2-1.97h.21c.74 0 1.46-.08 2.13-.32Zm-.02 5.49c-.1.65-.52 1.22-1.23 1.72-1.57 1.1-3.06.74-4.43-1.06-1-1.31-1.45-3.25-1.65-4.87a2.49 2.49 0 0 0 2.02-1.42l.04.01c1.54.69 3.33 1.7 4.33 3.03.73.96 1.04 1.83.92 2.59ZM5.25 20.88c-.71-.5-1.12-1.07-1.22-1.72-.12-.76.18-1.63.91-2.6 1.01-1.33 2.82-2.35 4.37-3.04a2.49 2.49 0 0 0 2.02 1.43c-.2 1.62-.66 3.56-1.66 4.87-1.36 1.8-2.85 2.16-4.42 1.06ZM2.17 8.94c.25-.84.67-1.42 1.25-1.71.3-.15.64-.23 1.03-.23.43 0 .92.1 1.47.29 1.37.48 2.69 1.6 3.71 2.67-.4.5-.63 1.18-.63 2.04 0 .2.02.38.04.55l-.06.03c-1.47.39-3.25.64-4.64.15-1.98-.7-2.71-1.97-2.17-3.79ZM12 2c1.99 0 3 1 3 3 0 1.41-.77 3-1.58 4.26A3.7 3.7 0 0 0 12 9c-.55 0-1.02.1-1.42.26C9.78 8 9 6.41 9 5c0-2 1-3 3-3Zm2 10c0 1.38-.62 2-2 2s-2-.62-2-2 .62-2 2-2 2 .62 2 2Zm1 0c0-.86-.22-1.54-.63-2.04a10.46 10.46 0 0 1 3.71-2.67c1.03-.36 1.87-.38 2.5-.06.58.29 1 .87 1.25 1.71.54 1.82-.19 3.1-2.17 3.79-1.4.5-3.22.23-4.7-.17.02-.18.04-.36.04-.56Z"></path><path d="M20 13.67c2.46-.87 3.48-2.7 2.79-5.02a3.65 3.65 0 0 0-1.75-2.31c-.89-.45-2-.45-3.29 0-.83.3-1.63.79-2.37 1.35.37-.88.62-1.8.62-2.7 0-2.53-1.46-4-4-4S8 2.47 8 5c0 .9.25 1.82.62 2.7a8.75 8.75 0 0 0-2.37-1.35c-1.3-.45-2.4-.46-3.28 0A3.65 3.65 0 0 0 1.2 8.64c-.7 2.32.33 4.15 2.8 5.02a6.4 6.4 0 0 0 2.12.33l.23-.01a8.95 8.95 0 0 0-2.22 1.97c-.9 1.2-1.27 2.32-1.1 3.36.14.91.71 1.73 1.64 2.38.47.33 1.31.79 2.33.79 1.04 0 2.26-.48 3.46-2.07A9.76 9.76 0 0 0 12 16.88c.3 1.26.77 2.55 1.53 3.54 1.03 1.38 2.24 2.08 3.49 2.08.76 0 1.54-.27 2.3-.8a3.65 3.65 0 0 0 1.64-2.38c.17-1.04-.2-2.17-1.1-3.36a8.97 8.97 0 0 0-2.2-1.97h.21c.74 0 1.46-.08 2.13-.32Zm-.02 5.49c-.1.65-.52 1.22-1.23 1.72-1.57 1.1-3.06.74-4.43-1.06-1-1.31-1.45-3.25-1.65-4.87a2.49 2.49 0 0 0 2.02-1.42l.04.01c1.54.69 3.33 1.7 4.33 3.03.73.96 1.04 1.83.92 2.59ZM5.25 20.88c-.71-.5-1.12-1.07-1.22-1.72-.12-.76.18-1.63.91-2.6 1.01-1.33 2.82-2.35 4.37-3.04a2.49 2.49 0 0 0 2.02 1.43c-.2 1.62-.66 3.56-1.66 4.87-1.36 1.8-2.85 2.16-4.42 1.06ZM2.17 8.94c.25-.84.67-1.42 1.25-1.71.3-.15.64-.23 1.03-.23.43 0 .92.1 1.47.29 1.37.48 2.69 1.6 3.71 2.67-.4.5-.63 1.18-.63 2.04 0 .2.02.38.04.55l-.06.03c-1.47.39-3.25.64-4.64.15-1.98-.7-2.71-1.97-2.17-3.79ZM12 2c1.99 0 3 1 3 3 0 1.41-.77 3-1.58 4.26A3.7 3.7 0 0 0 12 9c-.55 0-1.02.1-1.42.26C9.78 8 9 6.41 9 5c0-2 1-3 3-3Zm2 10c0 1.38-.62 2-2 2s-2-.62-2-2 .62-2 2-2 2 .62 2 2Zm1 0c0-.86-.22-1.54-.63-2.04a10.46 10.46 0 0 1 3.71-2.67c1.03-.36 1.87-.38 2.5-.06.58.29 1 .87 1.25 1.71.54 1.82-.19 3.1-2.17 3.79-1.4.5-3.22.23-4.7-.17.02-.18.04-.36.04-.56Z"></path></svg>