<svg xmlns="http://www.w3.org/2000/svg" width="24" height="24" viewBox="0 0 24 24" fill="currentColor"><path d="M18.96 2.95c-.03-.04-.05-.08-.09-.11A6 6 0 0 0 14.4 1c-2.5 0-5.12 1.24-7.17 3.41-2.28 2.41-3.38 5.48-3.19 8.16.31-.04.63-.07.97-.07h.02c-.17-2.4.84-5.2 2.92-7.4C9.81 3.13 12.16 2 14.4 2c1.52 0 2.81.53 3.76 1.53l.08.1c2.26 2.5 1.66 7.11-1.33 10.48.22.27.4.56.56.88 2.31-2.49 3.38-5.67 3.07-8.39 2.1 3.63 1.88 7.47-.8 10.54a7.09 7.09 0 0 1-1.82 1.5 5.1 5.1 0 0 1-.42 1.31 7.96 7.96 0 0 0 2.99-2.15c3.8-4.36 3.21-10.04-1.52-14.85Z"></path><path d="M16.04 13.32A10.53 10.53 0 0 0 17.98 10H18v-.05c.76-2.2.6-4.39-.61-5.73A3.83 3.83 0 0 0 14.47 3c-1.9 0-4.03 1.1-5.7 2.94C6.92 7.97 6 10.5 6.16 12.6c.36.06.7.16 1.02.28A6.13 6.13 0 0 1 7.49 10h3.91l-2.95 3.65a4 4 0 0 1 .37.36L9 14l.18.01c.26-.29.54-.55.88-.76l2.24-2.77.67 2.02H13c.37 0 .72.03 1.05.08L13.2 10h3.72c-.4.98-.99 1.97-1.79 2.85.34.12.64.29.92.47ZM7.9 9a9.94 9.94 0 0 1 2.74-3.46L11.81 9H7.9Zm4.76-.57-1.16-3.49A5.8 5.8 0 0 1 14.47 4c.56 0 1.06.14 1.49.37l-3.29 4.06Zm.83.57 3.23-3.99c.79.96.93 2.43.52 3.99H13.5Z"></path><path d="M13 13.5c-1.52 0-2.66.56-3.33 1.55a5.51 5.51 0 0 0-1.34 0c-.67-1-1.8-1.55-3.33-1.55-2.5 0-4 1.5-4 4s1.5 4 4 4c.24 0 .45-.03.67-.05.67 1 1.8 1.55 3.33 1.55 1.52 0 2.66-.56 3.33-1.55.22.02.43.05.67.05 2.5 0 4-1.5 4-4s-1.5-4-4-4ZM5 19c0 .55.08 1.04.22 1.49L5 20.5c-1.12 0-3-.39-3-3s1.88-3 3-3c.67 0 1.6.15 2.24.81C5.82 15.87 5 17.16 5 19Zm4 3c-1.12 0-3-.39-3-3s1.88-3 3-3 3 .39 3 3-1.88 3-3 3Zm4-1.5-.22-.01c.14-.45.22-.94.22-1.49 0-1.84-.82-3.13-2.24-3.69A3.13 3.13 0 0 1 13 14.5c1.12 0 3 .39 3 3s-1.88 3-3 3Z"></path><path d="M8.5 18.25a.75.75 0 1 0 0-1.5.75.75 0 0 0 0 1.5ZM14 17.25a.75.75 0 1 0 0-1.5.75.75 0 0 0 0 1.5ZM4 17.25a.75.75 0 1 0 0-1.5.75.75 0 0 0 0 1.5Z"></path><path d="M18.96 2.95c-.03-.04-.05-.08-.09-.11A6 6 0 0 0 14.4 1c-2.5 0-5.12 1.24-7.17 3.41-2.28 2.41-3.38 5.48-3.19 8.16.31-.04.63-.07.97-.07h.02c-.17-2.4.84-5.2 2.92-7.4C9.81 3.13 12.16 2 14.4 2c1.52 0 2.81.53 3.76 1.53l.08.1c2.26 2.5 1.66 7.11-1.33 10.48.22.27.4.56.56.88 2.31-2.49 3.38-5.67 3.07-8.39 2.1 3.63 1.88 7.47-.8 10.54a7.09 7.09 0 0 1-1.82 1.5 5.1 5.1 0 0 1-.42 1.31 7.96 7.96 0 0 0 2.99-2.15c3.8-4.36 3.21-10.04-1.52-14.85Z"></path><path d="M16.04 13.32A10.53 10.53 0 0 0 17.98 10H18v-.05c.76-2.2.6-4.39-.61-5.73A3.83 3.83 0 0 0 14.47 3c-1.9 0-4.03 1.1-5.7 2.94C6.92 7.97 6 10.5 6.16 12.6c.36.06.7.16 1.02.28A6.13 6.13 0 0 1 7.49 10h3.91l-2.95 3.65a4 4 0 0 1 .37.36L9 14l.18.01c.26-.29.54-.55.88-.76l2.24-2.77.67 2.02H13c.37 0 .72.03 1.05.08L13.2 10h3.72c-.4.98-.99 1.97-1.79 2.85.34.12.64.29.92.47ZM7.9 9a9.94 9.94 0 0 1 2.74-3.46L11.81 9H7.9Zm4.76-.57-1.16-3.49A5.8 5.8 0 0 1 14.47 4c.56 0 1.06.14 1.49.37l-3.29 4.06Zm.83.57 3.23-3.99c.79.96.93 2.43.52 3.99H13.5Z"></path><path d="M13 13.5c-1.52 0-2.66.56-3.33 1.55a5.51 5.51 0 0 0-1.34 0c-.67-1-1.8-1.55-3.33-1.55-2.5 0-4 1.5-4 4s1.5 4 4 4c.24 0 .45-.03.67-.05.67 1 1.8 1.55 3.33 1.55 1.52 0 2.66-.56 3.33-1.55.22.02.43.05.67.05 2.5 0 4-1.5 4-4s-1.5-4-4-4ZM5 19c0 .55.08 1.04.22 1.49L5 20.5c-1.12 0-3-.39-3-3s1.88-3 3-3c.67 0 1.6.15 2.24.81C5.82 15.87 5 17.16 5 19Zm4 3c-1.12 0-3-.39-3-3s1.88-3 3-3 3 .39 3 3-1.88 3-3 3Zm4-1.5-.22-.01c.14-.45.22-.94.22-1.49 0-1.84-.82-3.13-2.24-3.69A3.13 3.13 0 0 1 13 14.5c1.12 0 3 .39 3 3s-1.88 3-3 3Z"></path><path d="M8.5 18.25a.75.75 0 1 0 0-1.5.75.75 0 0 0 0 1.5ZM14 17.25a.75.75 0 1 0 0-1.5.75.75 0 0 0 0 1.5ZM4 17.25a.75.75 0 1 0 0-1.5.75.75 0 0 0 0 1.5Z"></path></svg>