<svg xmlns="http://www.w3.org/2000/svg" width="24" height="24" viewBox="0 0 24 24" fill="currentColor"><path d="M12 3C5.46 3 2 5.96 2 11.55 2 17.67 10.34 22 12 22c1.66 0 10-4.33 10-10.45C22 6.04 18.45 3 12 3Zm5.87 2.34C17.35 6.11 15.17 7 12 7c-3.22 0-5.4-.91-5.9-1.69C7.56 4.44 9.52 4 12 4c1.99 0 4.16.31 5.87 1.34ZM12 21c-1.12 0-9-3.83-9-9.45 0-2.52.77-4.42 2.3-5.68C6.14 7.12 8.78 8 12 8c3.18 0 5.8-.87 6.69-2.1C20.07 7.06 21 8.85 21 11.56c0 5.62-7.88 9.45-9 9.45Z"></path><path d="M12 3C5.46 3 2 5.96 2 11.55 2 17.67 10.34 22 12 22c1.66 0 10-4.33 10-10.45C22 6.04 18.45 3 12 3Zm5.87 2.34C17.35 6.11 15.17 7 12 7c-3.22 0-5.4-.91-5.9-1.69C7.56 4.44 9.52 4 12 4c1.99 0 4.16.31 5.87 1.34ZM12 21c-1.12 0-9-3.83-9-9.45 0-2.52.77-4.42 2.3-5.68C6.14 7.12 8.78 8 12 8c3.18 0 5.8-.87 6.69-2.1C20.07 7.06 21 8.85 21 11.56c0 5.62-7.88 9.45-9 9.45Z"></path></svg>