<svg xmlns="http://www.w3.org/2000/svg" width="24" height="24" viewBox="0 0 24 24" fill="currentColor"><path d="M15.83 6 14 7.42V3h-1v5.2l-1 .78V1h-1v7.98l-1-.78V3H9v4.42L7.17 6H6v9.5c0 3.87 1.86 6.25 5 6.48V24h1v-2.02c3.14-.23 5-2.61 5-6.48V6h-1.17Zm.17 8.26-4 3.2v-2.72l4-3.2v2.72Zm-9-2.72 4 3.2v2.72l-4-3.2v-2.72Zm9-4.4v3.12l-4 3.2v-3.22l4-3.1Zm-5 3.1v3.22l-4-3.2V7.13l4 3.11Zm-4 5.3 4 3.2v2.22c-2.56-.23-3.98-2.11-4-5.42Zm5 5.42v-2.22l4-3.2c-.02 3.3-1.44 5.2-4 5.42Z"></path><path d="M15.83 6 14 7.42V3h-1v5.2l-1 .78V1h-1v7.98l-1-.78V3H9v4.42L7.17 6H6v9.5c0 3.87 1.86 6.25 5 6.48V24h1v-2.02c3.14-.23 5-2.61 5-6.48V6h-1.17Zm.17 8.26-4 3.2v-2.72l4-3.2v2.72Zm-9-2.72 4 3.2v2.72l-4-3.2v-2.72Zm9-4.4v3.12l-4 3.2v-3.22l4-3.1Zm-5 3.1v3.22l-4-3.2V7.13l4 3.11Zm-4 5.3 4 3.2v2.22c-2.56-.23-3.98-2.11-4-5.42Zm5 5.42v-2.22l4-3.2c-.02 3.3-1.44 5.2-4 5.42Z"></path></svg>