<svg xmlns="http://www.w3.org/2000/svg" width="24" height="24" viewBox="0 0 24 24" fill="currentColor"><path d="M16 9h-.22l.3-2H5.92l1.46 9.72A1.5 1.5 0 0 0 8.86 18h4.28a1.5 1.5 0 0 0 1.48-1.28l.49-3.22H16c2.17 0 2.5-1.41 2.5-2.25 0-.84-.33-2.25-2.5-2.25Zm-2.86 8H8.86a.5.5 0 0 1-.5-.43l-.45-3.07h6.18l-.46 3.07a.5.5 0 0 1-.5.43Zm1.1-4.5H7.76L7.08 8h7.84l-.68 4.5Zm1.76 0h-.74l.37-2.5H16c1.32 0 1.5.6 1.5 1.25s-.18 1.25-1.5 1.25Z"></path><path d="M16 9h-.22l.3-2H5.92l1.46 9.72A1.5 1.5 0 0 0 8.86 18h4.28a1.5 1.5 0 0 0 1.48-1.28l.49-3.22H16c2.17 0 2.5-1.41 2.5-2.25 0-.84-.33-2.25-2.5-2.25Zm-2.86 8H8.86a.5.5 0 0 1-.5-.43l-.45-3.07h6.18l-.46 3.07a.5.5 0 0 1-.5.43Zm1.1-4.5H7.76L7.08 8h7.84l-.68 4.5Zm1.76 0h-.74l.37-2.5H16c1.32 0 1.5.6 1.5 1.25s-.18 1.25-1.5 1.25Z"></path></svg>