<svg xmlns="http://www.w3.org/2000/svg" width="24" height="24" viewBox="0 0 24 24" fill="currentColor"><g clip-path="url(#a)"><path d="M12.5 2V1H15V0H9v1h2.5v1C5.5 2.2 2 5.9 2 12c0 6.3 3.7 10 10 10s10-3.7 10-10c0-6.1-3.5-9.8-9.5-10Zm0 1c5.2.2 8.3 3.2 8.5 8.5h-4c.2-1.2-.3-2.2-1.2-3.2-1-1-2-1.4-3.2-1.2V3h-.1Zm3 6.5c.4.6.6 1.2.5 1.8-.1.9-.7 1.9-1.7 2.9s-2 1.6-2.9 1.7c-.7.1-1.4-.2-2.1-.7l1-1.8c.3-.6.9-.9 1.5-.9h.5c1 0 2-.6 2.4-1.5l.8-1.5ZM12.7 8h.3c.6 0 1.2.3 1.8.7l-1 1.8c-.3.6-.9.9-1.5.9h-.5c-1 0-2 .6-2.4 1.5l-.8 1.5c-.7-1-1-2.5 1.2-4.7 1-1 2-1.6 2.9-1.7ZM12 21c-5.7 0-9-3.3-9-9 0-5.5 3.1-8.8 8.5-9v4.3c-.8.3-1.6.9-2.4 1.7-3.1 3.1-2.1 5.3-.8 6.7.8.9 1.7 1.3 2.7 1.3h.5c1.1-.1 2.3-.8 3.5-2 .8-.8 1.4-1.6 1.7-2.4H21c-.2 5.3-3.5 8.4-9 8.4Z"></path><path d="M15.5 5h-1v1h1V5ZM17.5 6.5h-1v1h1v-1ZM19 8.5h-1v1h1v-1Z"></path></g><defs><clipPath id="a"><path d="M0 0h24v24H0z"></path></clipPath></defs><g clip-path="url(#a)"><path d="M12.5 2V1H15V0H9v1h2.5v1C5.5 2.2 2 5.9 2 12c0 6.3 3.7 10 10 10s10-3.7 10-10c0-6.1-3.5-9.8-9.5-10Zm0 1c5.2.2 8.3 3.2 8.5 8.5h-4c.2-1.2-.3-2.2-1.2-3.2-1-1-2-1.4-3.2-1.2V3h-.1Zm3 6.5c.4.6.6 1.2.5 1.8-.1.9-.7 1.9-1.7 2.9s-2 1.6-2.9 1.7c-.7.1-1.4-.2-2.1-.7l1-1.8c.3-.6.9-.9 1.5-.9h.5c1 0 2-.6 2.4-1.5l.8-1.5ZM12.7 8h.3c.6 0 1.2.3 1.8.7l-1 1.8c-.3.6-.9.9-1.5.9h-.5c-1 0-2 .6-2.4 1.5l-.8 1.5c-.7-1-1-2.5 1.2-4.7 1-1 2-1.6 2.9-1.7ZM12 21c-5.7 0-9-3.3-9-9 0-5.5 3.1-8.8 8.5-9v4.3c-.8.3-1.6.9-2.4 1.7-3.1 3.1-2.1 5.3-.8 6.7.8.9 1.7 1.3 2.7 1.3h.5c1.1-.1 2.3-.8 3.5-2 .8-.8 1.4-1.6 1.7-2.4H21c-.2 5.3-3.5 8.4-9 8.4Z"></path><path d="M15.5 5h-1v1h1V5ZM17.5 6.5h-1v1h1v-1ZM19 8.5h-1v1h1v-1Z"></path></g><defs><clipPath id="a"><path d="M0 0h24v24H0z"></path></clipPath></defs></svg>