<svg xmlns="http://www.w3.org/2000/svg" width="24" height="24" viewBox="0 0 24 24" fill="currentColor"><path d="M7 15c0-1.23-.77-2-2-2s-2 .77-2 2 .77 2 2 2 2-.77 2-2Zm-2 1c-.67 0-1-.33-1-1 0-.67.33-1 1-1 .67 0 1 .33 1 1 0 .67-.33 1-1 1ZM9.13 6.14l.2.02c.26 0 .53-.04.82-.12.6-.16 1.29-.58 1.76-1.17l1.25 4.82c.26 0 .56 0 .9.03 0-.13.02-.26.04-.38l-1.7-6.57a2.23 2.23 0 0 0-1.05-1.41C10.62.93 9.6.89 8.37 1.22 6.4 1.76 5.2 3.48 5.64 5.13l3.2 11.92c.47.1.86.3 1.2.56L6.6 4.87c-.28-1.09.63-2.3 2.03-2.68.94-.26 1.73-.25 2.22.03.3.17.48.43.58.8.28 1.08-.87 1.87-1.55 2.06-.4.1-.73.11-.92 0-.05-.03-.13-.09-.17-.24-.11-.46.48-.7.84-.8l-.26-.96c-1.42.4-1.73 1.3-1.54 2l2.63 10.15.3-.44c.03-.07.2-.3.46-.6L9.13 6.14ZM16.76 19.58c-.33.25-.63.44-.88.57l.08.32c.22.84-.53 1.24-1.2 1.42-.54.15-1 .15-1.3-.03a.87.87 0 0 1-.4-.57L12 17.2l-.6-.2-.55-.25 1.24 4.79c.14.53.44.94.87 1.19.31.18.68.27 1.1.27.3 0 .63-.05.97-.14 1.49-.41 2.21-1.42 1.9-2.64l-.17-.64ZM8 18c-1.23 0-2 .77-2 2s.77 2 2 2 2-.77 2-2-.77-2-2-2Zm0 3c-.67 0-1-.33-1-1 0-.67.33-1 1-1 .67 0 1 .33 1 1 0 .67-.33 1-1 1Z"></path><path d="m23.42 12.66.33-.5-.55-.24a5.82 5.82 0 0 0-2.65-.38c.44-1.32.2-2.6.19-2.67l-.12-.59-.56.22c-.06.03-1.27.52-2.14 1.6a5.82 5.82 0 0 0-1.76-2.02l-.5-.33-.24.55a5.8 5.8 0 0 0-.38 2.65c-1.32-.44-2.6-.2-2.67-.19l-.59.12.22.56c.03.06.52 1.27 1.6 2.14a5.82 5.82 0 0 0-2.02 1.76l-.33.5.55.24a5.83 5.83 0 0 0 2.65.38 5.8 5.8 0 0 0-.18 2.67l.11.59.56-.22a5.83 5.83 0 0 0 2.14-1.6 5.82 5.82 0 0 0 1.76 2.02l.5.33.24-.55a5.8 5.8 0 0 0 .38-2.65 5.47 5.47 0 0 0 2.67.19l.59-.12-.22-.56a5.83 5.83 0 0 0-1.6-2.14 5.82 5.82 0 0 0 2.02-1.76Zm-5.05-1.45c.37-.69.98-1.17 1.44-1.45a4.1 4.1 0 0 1-.43 2l-.08.11c-.35.16-.67.35-.94.56.02-.34.01-.71-.05-1.1l.06-.12Zm-5.11.47c.54 0 1.3.07 2 .44l.11.08c.16.35.35.67.56.94a4.83 4.83 0 0 0-1.1.05l-.12-.06a4.12 4.12 0 0 1-1.45-1.45Zm1.65 3.68a4.1 4.1 0 0 1-2.05 0 4.1 4.1 0 0 1 1.73-1.1c.46-.14.93-.15 1.34-.11l.06.3.11.28c-.33.25-.72.5-1.19.63Zm1.72 1.43a4.13 4.13 0 0 1-1.45 1.46c0-.54.07-1.32.44-2l.08-.12c.35-.16.67-.35.94-.56-.02.35-.01.71.05 1.1l-.06.12Zm-.49-5.38a4.11 4.11 0 0 1 0-2.05c.38.38.88.97 1.1 1.73.14.46.15.92.11 1.34l-.3.06c-.1.03-.17.09-.26.13-.26-.33-.51-.73-.65-1.2Zm1.06 3.13c-.11-.06-.2-.19-.25-.38-.06-.2-.06-.36.01-.47.08-.13.25-.2.38-.24a.96.96 0 0 1 .25-.04c.07 0 .15.01.21.05.11.06.2.19.25.38.06.2.06.36-.01.47-.08.13-.25.2-.38.24-.13.04-.32.07-.46 0Zm1.66 4.1a4.1 4.1 0 0 1-1.1-1.73 3.66 3.66 0 0 1-.11-1.35c.1-.02.2-.02.3-.05.1-.03.17-.09.26-.13.26.33.51.73.65 1.2.22.76.13 1.53 0 2.06Zm2.89-2.32a3.94 3.94 0 0 1-2-.44l-.12-.08a4.91 4.91 0 0 0-.55-.94 5.22 5.22 0 0 0 1.09-.05l.12.06c.69.37 1.17.99 1.46 1.45Zm-1.34-2.58c-.46.14-.93.15-1.34.11l-.06-.3-.11-.28c.33-.25.72-.5 1.19-.63a4.12 4.12 0 0 1 2.05 0c-.37.38-.97.88-1.73 1.1ZM3 18c-1.23 0-2 .77-2 2s.77 2 2 2c1.13 0 1.85-.64 1.97-1.69.02-.1.03-.2.03-.31l-.03-.31C4.85 18.64 4.13 18 3 18Zm0 3c-.67 0-1-.33-1-1 0-.67.33-1 1-1 .67 0 1 .33 1 1 0 .67-.33 1-1 1Z"></path><path d="M7 15c0-1.23-.77-2-2-2s-2 .77-2 2 .77 2 2 2 2-.77 2-2Zm-2 1c-.67 0-1-.33-1-1 0-.67.33-1 1-1 .67 0 1 .33 1 1 0 .67-.33 1-1 1ZM9.13 6.14l.2.02c.26 0 .53-.04.82-.12.6-.16 1.29-.58 1.76-1.17l1.25 4.82c.26 0 .56 0 .9.03 0-.13.02-.26.04-.38l-1.7-6.57a2.23 2.23 0 0 0-1.05-1.41C10.62.93 9.6.89 8.37 1.22 6.4 1.76 5.2 3.48 5.64 5.13l3.2 11.92c.47.1.86.3 1.2.56L6.6 4.87c-.28-1.09.63-2.3 2.03-2.68.94-.26 1.73-.25 2.22.03.3.17.48.43.58.8.28 1.08-.87 1.87-1.55 2.06-.4.1-.73.11-.92 0-.05-.03-.13-.09-.17-.24-.11-.46.48-.7.84-.8l-.26-.96c-1.42.4-1.73 1.3-1.54 2l2.63 10.15.3-.44c.03-.07.2-.3.46-.6L9.13 6.14ZM16.76 19.58c-.33.25-.63.44-.88.57l.08.32c.22.84-.53 1.24-1.2 1.42-.54.15-1 .15-1.3-.03a.87.87 0 0 1-.4-.57L12 17.2l-.6-.2-.55-.25 1.24 4.79c.14.53.44.94.87 1.19.31.18.68.27 1.1.27.3 0 .63-.05.97-.14 1.49-.41 2.21-1.42 1.9-2.64l-.17-.64ZM8 18c-1.23 0-2 .77-2 2s.77 2 2 2 2-.77 2-2-.77-2-2-2Zm0 3c-.67 0-1-.33-1-1 0-.67.33-1 1-1 .67 0 1 .33 1 1 0 .67-.33 1-1 1Z"></path><path d="m23.42 12.66.33-.5-.55-.24a5.82 5.82 0 0 0-2.65-.38c.44-1.32.2-2.6.19-2.67l-.12-.59-.56.22c-.06.03-1.27.52-2.14 1.6a5.82 5.82 0 0 0-1.76-2.02l-.5-.33-.24.55a5.8 5.8 0 0 0-.38 2.65c-1.32-.44-2.6-.2-2.67-.19l-.59.12.22.56c.03.06.52 1.27 1.6 2.14a5.82 5.82 0 0 0-2.02 1.76l-.33.5.55.24a5.83 5.83 0 0 0 2.65.38 5.8 5.8 0 0 0-.18 2.67l.11.59.56-.22a5.83 5.83 0 0 0 2.14-1.6 5.82 5.82 0 0 0 1.76 2.02l.5.33.24-.55a5.8 5.8 0 0 0 .38-2.65 5.47 5.47 0 0 0 2.67.19l.59-.12-.22-.56a5.83 5.83 0 0 0-1.6-2.14 5.82 5.82 0 0 0 2.02-1.76Zm-5.05-1.45c.37-.69.98-1.17 1.44-1.45a4.1 4.1 0 0 1-.43 2l-.08.11c-.35.16-.67.35-.94.56.02-.34.01-.71-.05-1.1l.06-.12Zm-5.11.47c.54 0 1.3.07 2 .44l.11.08c.16.35.35.67.56.94a4.83 4.83 0 0 0-1.1.05l-.12-.06a4.12 4.12 0 0 1-1.45-1.45Zm1.65 3.68a4.1 4.1 0 0 1-2.05 0 4.1 4.1 0 0 1 1.73-1.1c.46-.14.93-.15 1.34-.11l.06.3.11.28c-.33.25-.72.5-1.19.63Zm1.72 1.43a4.13 4.13 0 0 1-1.45 1.46c0-.54.07-1.32.44-2l.08-.12c.35-.16.67-.35.94-.56-.02.35-.01.71.05 1.1l-.06.12Zm-.49-5.38a4.11 4.11 0 0 1 0-2.05c.38.38.88.97 1.1 1.73.14.46.15.92.11 1.34l-.3.06c-.1.03-.17.09-.26.13-.26-.33-.51-.73-.65-1.2Zm1.06 3.13c-.11-.06-.2-.19-.25-.38-.06-.2-.06-.36.01-.47.08-.13.25-.2.38-.24a.96.96 0 0 1 .25-.04c.07 0 .15.01.21.05.11.06.2.19.25.38.06.2.06.36-.01.47-.08.13-.25.2-.38.24-.13.04-.32.07-.46 0Zm1.66 4.1a4.1 4.1 0 0 1-1.1-1.73 3.66 3.66 0 0 1-.11-1.35c.1-.02.2-.02.3-.05.1-.03.17-.09.26-.13.26.33.51.73.65 1.2.22.76.13 1.53 0 2.06Zm2.89-2.32a3.94 3.94 0 0 1-2-.44l-.12-.08a4.91 4.91 0 0 0-.55-.94 5.22 5.22 0 0 0 1.09-.05l.12.06c.69.37 1.17.99 1.46 1.45Zm-1.34-2.58c-.46.14-.93.15-1.34.11l-.06-.3-.11-.28c.33-.25.72-.5 1.19-.63a4.12 4.12 0 0 1 2.05 0c-.37.38-.97.88-1.73 1.1ZM3 18c-1.23 0-2 .77-2 2s.77 2 2 2c1.13 0 1.85-.64 1.97-1.69.02-.1.03-.2.03-.31l-.03-.31C4.85 18.64 4.13 18 3 18Zm0 3c-.67 0-1-.33-1-1 0-.67.33-1 1-1 .67 0 1 .33 1 1 0 .67-.33 1-1 1Z"></path></svg>