<svg xmlns="http://www.w3.org/2000/svg" width="24" height="24" viewBox="0 0 24 24" fill="currentColor"><path d="M19.03 8.23 23.6 6l-.43-.9-7.88 3.83c.03-.2.06-.42.07-.63l5.36-4.88-.67-.74-4.72 4.3a7.44 7.44 0 0 0-2.65-4.83l-.29-.22-.3.2A7.1 7.1 0 0 0 9.5 9.1a7.4 7.4 0 0 0-7.4.31l-.29.21.11.35c.03.11.8 2.49 3.38 3.84l-2.8 1.36c-.12.04-.79.17-1.15-.78l-.93.36c.42 1.12 1.23 1.44 1.87 1.44.22 0 .41-.04.57-.09l3.67-1.78.6.16-4.02 3.66c-.1.08-.7.4-1.34-.39l-.78.63c.54.67 1.13.89 1.65.89.45 0 .84-.17 1.1-.35l2.47-2.25a7.45 7.45 0 0 0-.47 5.04l.1.35h.36a7.05 7.05 0 0 0 6.18-4.09 7.39 7.39 0 0 0 6.16 4.1h.37l.12-.34a7.09 7.09 0 0 0-1.98-7.15 7.39 7.39 0 0 0 5.8-4.6l.11-.34-.29-.22a6.94 6.94 0 0 0-3.63-1.18ZM18 13.33c-.75.25-1.53.34-2.32.29l-.34-.02c-.04.28-.12.54-.22.78l.26.16c.68.42 1.25.96 1.7 1.6a6.16 6.16 0 0 1 1.1 4.88 6.47 6.47 0 0 1-4.33-2.54 6.11 6.11 0 0 1-.98-2.11l-.09-.35c-.13.02-.26.04-.4.04-.13 0-.26-.02-.4-.04l-.08.35a6.16 6.16 0 0 1-5.3 4.66 6.43 6.43 0 0 1 1.08-4.9 6.08 6.08 0 0 1 1.7-1.59l.27-.16c-.1-.24-.18-.5-.22-.78l-.34.02A6.17 6.17 0 0 1 3 10.02c.75-.4 2.7-1.23 4.99-.49.74.24 1.43.63 2.04 1.14l.2.17c.2-.2.43-.34.7-.47l-.12-.27a6.16 6.16 0 0 1 1.54-6.88c.62.59 2.01 2.19 2.01 4.59 0 .78-.15 1.55-.44 2.29l-.12.28c.26.13.49.28.69.47l.21-.18a6.15 6.15 0 0 1 7.02-.66A6.47 6.47 0 0 1 18 13.34Z"></path><path d="M14.1 11.97a1.81 1.81 0 0 0-1.23-.86V7.06h-1v4.05c-.55.11-.97.42-1.22.86l-3.83-1.24-.3.95 3.86 1.26v.12c0 .52.16.96.43 1.3l-2.37 3.26.81.59 2.38-3.28a2.27 2.27 0 0 0 1.49 0l2.38 3.28.8-.6-2.36-3.25c.27-.34.43-.78.43-1.3v-.12l3.86-1.26-.3-.95-3.84 1.24Zm-1.73 2.09c-.3 0-1-.1-1-1 0-.83.55-1 1-1 .3 0 1 .1 1 1s-.7 1-1 1Z"></path><path d="M19.03 8.23 23.6 6l-.43-.9-7.88 3.83c.03-.2.06-.42.07-.63l5.36-4.88-.67-.74-4.72 4.3a7.44 7.44 0 0 0-2.65-4.83l-.29-.22-.3.2A7.1 7.1 0 0 0 9.5 9.1a7.4 7.4 0 0 0-7.4.31l-.29.21.11.35c.03.11.8 2.49 3.38 3.84l-2.8 1.36c-.12.04-.79.17-1.15-.78l-.93.36c.42 1.12 1.23 1.44 1.87 1.44.22 0 .41-.04.57-.09l3.67-1.78.6.16-4.02 3.66c-.1.08-.7.4-1.34-.39l-.78.63c.54.67 1.13.89 1.65.89.45 0 .84-.17 1.1-.35l2.47-2.25a7.45 7.45 0 0 0-.47 5.04l.1.35h.36a7.05 7.05 0 0 0 6.18-4.09 7.39 7.39 0 0 0 6.16 4.1h.37l.12-.34a7.09 7.09 0 0 0-1.98-7.15 7.39 7.39 0 0 0 5.8-4.6l.11-.34-.29-.22a6.94 6.94 0 0 0-3.63-1.18ZM18 13.33c-.75.25-1.53.34-2.32.29l-.34-.02c-.04.28-.12.54-.22.78l.26.16c.68.42 1.25.96 1.7 1.6a6.16 6.16 0 0 1 1.1 4.88 6.47 6.47 0 0 1-4.33-2.54 6.11 6.11 0 0 1-.98-2.11l-.09-.35c-.13.02-.26.04-.4.04-.13 0-.26-.02-.4-.04l-.08.35a6.16 6.16 0 0 1-5.3 4.66 6.43 6.43 0 0 1 1.08-4.9 6.08 6.08 0 0 1 1.7-1.59l.27-.16c-.1-.24-.18-.5-.22-.78l-.34.02A6.17 6.17 0 0 1 3 10.02c.75-.4 2.7-1.23 4.99-.49.74.24 1.43.63 2.04 1.14l.2.17c.2-.2.43-.34.7-.47l-.12-.27a6.16 6.16 0 0 1 1.54-6.88c.62.59 2.01 2.19 2.01 4.59 0 .78-.15 1.55-.44 2.29l-.12.28c.26.13.49.28.69.47l.21-.18a6.15 6.15 0 0 1 7.02-.66A6.47 6.47 0 0 1 18 13.34Z"></path><path d="M14.1 11.97a1.81 1.81 0 0 0-1.23-.86V7.06h-1v4.05c-.55.11-.97.42-1.22.86l-3.83-1.24-.3.95 3.86 1.26v.12c0 .52.16.96.43 1.3l-2.37 3.26.81.59 2.38-3.28a2.27 2.27 0 0 0 1.49 0l2.38 3.28.8-.6-2.36-3.25c.27-.34.43-.78.43-1.3v-.12l3.86-1.26-.3-.95-3.84 1.24Zm-1.73 2.09c-.3 0-1-.1-1-1 0-.83.55-1 1-1 .3 0 1 .1 1 1s-.7 1-1 1Z"></path></svg>