<svg xmlns="http://www.w3.org/2000/svg" width="24" height="24" viewBox="0 0 24 24" fill="currentColor"><path d="M5 1v22h14V1H5Zm10 10.44c.65.48 1 1.35 1 2.56 0 1.2-.35 2.08-1 2.56V22h-3v-5.44c-.65-.48-1-1.35-1-2.56 0-1.2.35-2.08 1-2.56V2h3v9.44ZM7 10v12H6V2h1v6h1V2h3v9c-.64.68-1 1.7-1 3s.36 2.32 1 3v5H8V10H7Zm11 12h-2v-5c.64-.68 1-1.7 1-3s-.36-2.32-1-3V2h2v20Z"></path><path d="M13.5 16c.73 0 1.5-.53 1.5-2s-.77-2-1.5-2-1.5.53-1.5 2 .77 2 1.5 2Zm0-3c.43 0 .5.63.5 1s-.07 1-.5 1-.5-.63-.5-1 .07-1 .5-1Z"></path><path d="M5 1v22h14V1H5Zm10 10.44c.65.48 1 1.35 1 2.56 0 1.2-.35 2.08-1 2.56V22h-3v-5.44c-.65-.48-1-1.35-1-2.56 0-1.2.35-2.08 1-2.56V2h3v9.44ZM7 10v12H6V2h1v6h1V2h3v9c-.64.68-1 1.7-1 3s.36 2.32 1 3v5H8V10H7Zm11 12h-2v-5c.64-.68 1-1.7 1-3s-.36-2.32-1-3V2h2v20Z"></path><path d="M13.5 16c.73 0 1.5-.53 1.5-2s-.77-2-1.5-2-1.5.53-1.5 2 .77 2 1.5 2Zm0-3c.43 0 .5.63.5 1s-.07 1-.5 1-.5-.63-.5-1 .07-1 .5-1Z"></path></svg>